# xmcd CD database file
#
# Track frame offsets:
#	150
#	17831
#	61284
#	90324
#	123849
#	144860
#	173588
#	192559
#	224648
#
# Disc length: 3428 seconds
#
# Revision: 4
# Processed by: cddbd v1.5.2PL0 Copyright (c) Steve Scherf et al.
# Submitted via: CDex 1.51
#
DISCID=770d6209
DTITLE=Carey Bell's Blues Harp Band with Lurrie Bell - Goin' On Main Street
DYEAR=1994
DGENRE=Blues
TTITLE0=Goin' On Main Street
TTITLE1=I Am Worried
TTITLE2=Heartaches And Pain
TTITLE3=Easy To Love You
TTITLE4=Train Ticket
TTITLE5=When A Woman Get In Trouble
TTITLE6=Tribute To Big Walter
TTITLE7=I Need You So Bad
TTITLE8=Man And The Blues
EXTD=YEAR: 1994
EXTT0=
EXTT1=
EXTT2=
EXTT3=
EXTT4=
EXTT5=
EXTT6=
EXTT7=
EXTT8=
PLAYORDER=
